<?xml version="1.0" standalone="no"?>
<!DOCTYPE svg PUBLIC "-//W3C//DTD SVG 20010904//EN"
 "http://www.w3.org/TR/2001/REC-SVG-20010904/DTD/svg10.dtd">
<svg version="1.0" xmlns="http://www.w3.org/2000/svg"
 width="4100.000000pt" height="5315.000000pt" viewBox="0 0 4100.000000 5315.000000"
 preserveAspectRatio="xMidYMid meet">
<metadata>
Created by potrace 1.16, written by Peter Selinger 2001-2019
</metadata>
<g transform="translate(0.000000,5315.000000) scale(0.100000,-0.100000)"
fill="#000000" stroke="none">
<path d="M3895 51909 c-162 -19 -362 -82 -492 -155 -332 -185 -545 -514 -547
-844 -1 -93 2 -109 22 -143 32 -50 77 -83 135 -98 124 -34 257 71 257 201 0
222 133 412 370 531 128 64 249 91 410 91 162 0 250 -20 385 -86 227 -112 382
-318 470 -626 86 -298 395 -1440 401 -1480 6 -42 59 -240 393 -1475 455 -1682
631 -2341 1240 -4643 221 -833 406 -1523 412 -1535 22 -43 73 -87 118 -102 41
-13 481 -15 4046 -13 l4000 3 47 27 c51 31 80 71 98 137 23 88 -28 193 -114
232 -40 18 -169 19 -3943 19 l-3902 0 -15 53 c-15 54 -450 1702 -462 1749 l-6
28 3505 2 3505 3 44 30 c23 17 53 49 64 70 37 69 2034 5372 2034 5402 0 82
-52 162 -127 195 -40 18 -215 18 -5297 18 l-5255 0 -12 43 c-220 830 -402
1470 -447 1574 -181 420 -500 685 -931 773 -118 24 -296 32 -406 19z m2935
-2834 c0 -3 43 -169 95 -368 52 -200 95 -368 95 -375 0 -9 -113 -12 -507 -10
l-506 3 -98 365 c-54 201 -99 371 -99 378 0 9 109 12 510 12 281 0 510 -2 510
-5z m2004 -57 c4 -35 15 -187 26 -338 11 -151 22 -294 25 -317 l5 -43 -715 0
-714 0 -10 38 c-21 79 -173 659 -181 690 l-8 32 783 0 783 0 6 -62z m1796
-318 l0 -380 -659 0 -659 0 -6 58 c-3 31 -15 181 -26 332 -11 151 -22 296 -25
323 l-6 47 691 0 690 0 0 -380z m1705 333 c-3 -27 -14 -172 -25 -323 -11 -151
-23 -301 -26 -332 l-6 -58 -614 0 -614 0 0 380 0 380 645 0 646 0 -6 -47z
m1990 35 c-2 -7 -45 -170 -95 -363 -50 -192 -93 -358 -96 -367 -5 -17 -48 -18
-719 -18 l-715 0 5 43 c3 23 14 166 25 317 11 151 23 303 26 338 l6 62 784 0
c622 0 783 -3 779 -12z m1523 0 c-3 -7 -67 -178 -143 -380 l-138 -368 -498 0
c-380 0 -499 3 -499 12 0 6 43 175 95 374 52 200 95 365 95 368 0 3 246 6 546
6 433 0 545 -3 542 -12z m-8579 -1670 c72 -277 134 -513 137 -525 l6 -23 -506
0 c-278 0 -506 2 -506 5 0 3 -59 224 -131 493 -71 268 -134 502 -139 520 l-8
32 507 0 508 0 132 -502z m1651 492 c0 -19 69 -943 74 -993 l5 -47 -577 2
-576 3 -83 315 c-46 173 -107 408 -137 523 l-54 207 674 0 c462 0 674 -3 674
-10z m1710 -515 l0 -525 -604 0 -604 0 -6 58 c-3 31 -20 242 -36 467 -16 226
-33 436 -36 468 l-6 57 646 0 646 0 0 -525z m1616 468 c-3 -32 -20 -242 -36
-468 -16 -225 -33 -436 -36 -467 l-6 -58 -559 0 -559 0 0 525 0 525 601 0 601
0 -6 -57z m1718 -150 c-30 -115 -91 -350 -137 -523 l-82 -315 -577 -3 -577 -2
5 47 c5 56 74 969 74 989 0 12 109 14 674 14 l674 0 -54 -207z m1436 195 c0
-7 -87 -242 -193 -523 l-193 -510 -418 -3 c-395 -2 -418 -1 -414 15 3 10 65
246 138 526 l133 507 474 0 c372 0 473 -3 473 -12z m-7745 -1963 l132 -500
-496 -3 c-272 -1 -498 1 -502 5 -6 8 -269 980 -269 996 0 4 226 6 502 5 l502
-3 131 -500z m1375 497 c0 -5 16 -217 35 -472 19 -255 35 -478 35 -497 l0 -33
-440 0 c-242 0 -440 2 -440 5 0 2 -58 227 -130 499 -71 272 -130 497 -130 500
0 3 241 6 535 6 294 0 535 -4 535 -8z m1600 -497 l0 -505 -550 0 -549 0 -5 33
c-3 17 -19 223 -36 457 -17 234 -33 446 -36 473 l-6 47 591 0 591 0 0 -505z
m1506 458 c-3 -27 -19 -244 -36 -483 -17 -239 -33 -445 -36 -457 l-4 -23 -505
0 -505 0 0 505 0 505 546 0 546 0 -6 -47z m1494 41 c0 -3 -58 -229 -130 -501
-71 -271 -130 -496 -130 -498 0 -3 -198 -5 -440 -5 l-440 0 0 33 c0 19 16 242
35 497 19 255 35 467 35 472 0 4 241 8 535 8 294 0 535 -3 535 -6z m1220 2 c0
-11 -372 -992 -379 -999 -4 -4 -156 -6 -337 -5 l-331 3 129 490 c71 270 130
496 133 503 3 9 91 12 395 12 214 0 390 -2 390 -4z m-6950 -1429 c0 -3 173
-667 200 -765 l8 -32 -495 2 -496 3 -103 380 c-57 209 -104 388 -104 398 0 16
30 17 495 17 272 0 495 -2 495 -3z m1235 -9 c2 -7 15 -173 29 -368 14 -195 28
-370 30 -387 l5 -33 -330 0 c-181 0 -329 2 -329 5 0 3 -45 176 -100 385 -55
210 -100 387 -100 395 0 13 55 15 395 15 308 0 397 -3 400 -12z m1495 -388 l0
-400 -504 0 -505 0 -5 53 c-6 53 -56 708 -56 733 0 12 88 14 535 14 l535 0 0
-400z m1400 385 c0 -26 -49 -678 -56 -732 l-5 -53 -460 0 -459 0 0 400 0 400
490 0 c425 0 490 -2 490 -15z m1220 0 c0 -8 -45 -186 -100 -395 -55 -209 -100
-383 -100 -385 0 -3 -148 -5 -329 -5 l-330 0 5 33 c2 17 16 192 30 387 14 195
27 361 29 368 3 9 92 12 400 12 341 0 395 -2 395 -15z m1060 10 c0 -10 -293
-781 -299 -788 -4 -4 -124 -6 -268 -5 l-260 3 88 335 c48 184 95 363 105 398
l16 62 309 0 c170 0 309 -2 309 -5z"/>
<path d="M24880 50299 c-270 -35 -432 -94 -1140 -419 -590 -270 -818 -363
-1075 -436 -150 -43 -170 -51 -220 -86 -127 -89 -161 -261 -100 -503 55 -218
209 -543 372 -785 29 -43 29 -40 -3 51 -42 124 -84 297 -84 351 0 84 53 170
189 311 l65 67 66 0 c141 0 316 -53 465 -139 79 -46 128 -91 350 -323 73 -77
105 -102 173 -137 129 -66 248 -93 419 -95 l143 -1 0 -74 c0 -105 33 -234 87
-338 25 -48 56 -108 69 -133 42 -80 57 -164 51 -275 -5 -100 -39 -242 -73
-307 l-16 -31 33 7 c58 11 157 67 208 117 83 81 98 127 126 383 17 156 36 211
86 248 101 75 218 62 307 -36 55 -59 89 -136 113 -251 53 -253 -22 -584 -145
-644 -16 -7 -57 -16 -90 -18 -49 -4 -72 -1 -114 17 -64 28 -56 37 -146 -145
-160 -324 -224 -577 -233 -925 -7 -284 15 -516 70 -706 l22 -79 -429 -10 -429
-10 -139 -250 c-269 -485 -532 -1028 -646 -1335 -111 -297 -131 -438 -81 -556
31 -73 116 -204 132 -204 23 1 428 364 1007 905 437 408 723 664 835 749 124
94 290 146 400 127 170 -30 295 -159 345 -357 50 -196 4 -437 -122 -631 -195
-302 -1181 -1065 -1975 -1529 -82 -47 -149 -87 -150 -88 -1 -1 9 -69 22 -151
173 -1074 173 -1979 0 -2607 -58 -210 -78 -253 -141 -310 -195 -179 -333 -695
-423 -1583 -117 -1151 -138 -2981 -61 -5195 23 -648 86 -1990 96 -2037 l4 -23
1874 0 1873 0 7 48 c27 210 218 2411 286 3297 109 1423 153 2264 154 2895 0
436 -10 575 -60 875 -107 645 -369 1253 -723 1677 l-81 96 0 924 0 924 -35
455 c-110 1416 -231 2460 -336 2889 -77 313 -291 598 -582 772 -37 22 -66 43
-63 45 2 3 51 -3 108 -12 213 -34 446 -30 646 11 229 47 481 162 640 291 l43
35 -36 25 c-91 62 -213 257 -274 439 -40 119 -77 310 -92 468 -16 177 -6 606
25 1091 39 594 46 770 46 1119 0 435 -20 655 -80 893 -72 284 -213 456 -393
478 l-53 7 -12 89 c-23 168 -78 276 -198 388 -118 110 -265 173 -484 206 -102
16 -313 18 -420 4z"/>
<path d="M34115 43883 c-81 -11 -161 -41 -304 -112 -280 -141 -432 -195 -1039
-370 -208 -61 -409 -121 -446 -135 -172 -65 -285 -197 -338 -394 -27 -102 -29
-324 -4 -462 28 -158 101 -357 128 -348 5 2 25 50 44 108 38 113 61 157 108
208 45 49 96 72 160 72 120 0 249 -77 444 -264 177 -170 245 -213 409 -262
100 -29 305 -43 404 -27 l57 10 6 -66 c14 -140 61 -262 154 -404 28 -43 60
-103 71 -133 30 -79 51 -222 51 -346 0 -107 0 -108 24 -108 35 0 87 20 124 47
50 37 81 92 96 169 15 82 25 103 67 138 35 30 107 36 162 12 45 -19 102 -82
128 -141 31 -68 37 -207 15 -346 -32 -200 -103 -289 -232 -289 -54 0 -103 26
-135 71 -20 28 -22 29 -35 12 -25 -33 -93 -219 -125 -340 -37 -144 -75 -382
-89 -562 -13 -174 -13 -548 1 -742 7 -103 7 -154 0 -158 -5 -4 -128 -17 -273
-30 -230 -21 -269 -26 -312 -48 -151 -74 -281 -222 -380 -435 -84 -178 -138
-379 -176 -653 -28 -204 -41 -267 -122 -585 -38 -151 -80 -338 -93 -415 -24
-143 -51 -382 -44 -389 8 -8 407 -264 505 -324 94 -58 102 -65 108 -100 51
-304 97 -689 121 -1011 8 -112 16 -206 19 -208 2 -2 121 70 264 161 143 91
297 186 342 212 103 60 111 74 150 259 25 123 90 659 90 752 0 7 42 -21 94
-61 162 -126 366 -243 641 -365 66 -30 123 -57 126 -60 4 -3 -15 -82 -42 -175
-156 -543 -302 -876 -439 -999 -51 -46 -448 -251 -971 -502 l-266 -127 -7 -97
c-9 -127 -41 -354 -72 -505 -26 -129 -70 -301 -85 -327 -16 -31 -286 -69 -629
-89 -191 -11 -681 -26 -1160 -35 -631 -12 -1331 -54 -1705 -101 -744 -93
-1405 -344 -1582 -601 -33 -48 -37 -62 -38 -113 0 -33 5 -63 10 -69 7 -7 49
-3 130 11 168 30 604 32 770 5 584 -98 1100 -352 1635 -806 289 -245 608 -598
826 -915 61 -87 5 56 937 -2406 719 -1897 747 -1970 864 -2220 127 -271 234
-529 326 -786 89 -247 100 -291 95 -394 -6 -105 -32 -165 -103 -235 -95 -95
-205 -135 -367 -135 -141 0 -226 30 -311 109 -49 45 -79 104 -128 250 -23 67
-37 98 -33 74 l6 -42 -48 -7 c-137 -20 -296 27 -374 112 -68 74 -185 344 -315
725 -75 222 -238 751 -290 944 -15 55 -31 108 -37 118 -5 9 -201 266 -436 570
-235 303 -487 630 -561 725 -73 94 -135 172 -137 172 -2 0 -4 -810 -4 -1800
l0 -1800 933 0 932 0 55 -107 c30 -58 71 -129 92 -158 65 -91 183 -152 313
-162 l71 -6 33 -84 c47 -120 100 -194 173 -242 77 -52 141 -72 253 -78 221
-12 424 95 510 271 65 132 69 247 16 454 l-29 112 2064 0 2064 0 0 3045 0
3045 -569 0 -570 0 50 105 c201 420 159 1016 -124 1735 -70 179 -245 533 -345
700 -61 103 -97 189 -340 826 -150 391 -272 721 -272 734 0 12 11 90 25 172
74 437 135 1107 135 1486 0 72 2 132 5 132 2 0 39 -12 82 -26 92 -30 236 -63
276 -64 l28 0 -49 58 c-174 201 -283 501 -334 917 -17 145 -18 815 0 1015 36
418 79 780 166 1415 169 1229 215 1768 187 2220 -33 540 -148 887 -366 1111
-165 169 -350 254 -621 285 l-104 13 0 33 c0 19 -7 69 -16 111 -73 356 -393
692 -782 822 -126 41 -261 57 -367 43z"/>
<path d="M8519 41350 c-508 -60 -881 -498 -856 -1005 25 -483 395 -871 871
-913 697 -63 1220 594 1005 1263 -114 358 -430 610 -819 655 -94 11 -105 11
-201 0z"/>
<path d="M14240 41354 c-501 -56 -862 -430 -887 -919 -13 -265 80 -513 266
-708 166 -174 372 -275 605 -295 589 -53 1080 415 1053 1003 -20 442 -334 810
-766 900 -73 15 -217 25 -271 19z"/>
<path d="M10262 37939 c-152 -18 -304 -76 -425 -163 -76 -53 -199 -181 -250
-259 l-39 -58 -46 8 c-26 4 -126 8 -222 7 -146 -1 -188 -4 -254 -22 -343 -94
-548 -295 -725 -714 -197 -465 -305 -884 -481 -1863 -141 -783 -210 -1088
-325 -1430 -35 -104 -86 -244 -115 -310 -216 -503 -525 -899 -925 -1184 -49
-36 -92 -66 -95 -68 -22 -18 355 -242 408 -243 6 0 12 -3 12 -6 0 -3 -29 -62
-65 -130 -332 -639 -611 -1559 -761 -2511 l-27 -173 -255 -312 c-140 -172
-352 -432 -471 -578 -118 -146 -279 -331 -356 -411 -439 -453 -737 -960 -837
-1419 -20 -93 -22 -133 -22 -340 -1 -254 12 -370 60 -569 207 -848 878 -1419
1869 -1591 267 -46 365 -49 1470 -48 1007 1 1471 -6 2405 -37 659 -22 1668
-67 1796 -80 60 -6 51 -19 124 181 176 475 303 1036 361 1594 27 260 37 779
20 1025 -33 463 -113 882 -246 1280 -107 322 -282 706 -335 733 -38 20 -214 8
-335 -23 -309 -79 -716 -241 -1750 -695 -784 -344 -1212 -510 -1408 -545 l-38
-7 6 83 c20 279 46 454 106 697 43 175 117 412 174 557 19 49 35 93 35 98 0 4
-17 5 -37 2 -81 -12 -517 -21 -668 -14 -251 12 -371 43 -432 112 -152 173
-171 976 -47 2037 34 291 113 793 150 945 5 19 13 20 232 21 166 0 254 5 327
17 200 35 416 103 569 179 32 16 60 28 61 26 7 -6 -76 -350 -270 -1123 -252
-1003 -315 -1299 -315 -1486 0 -97 12 -114 95 -129 73 -13 516 -26 567 -16 35
6 40 13 99 124 128 242 406 682 432 682 6 0 67 27 135 60 230 111 390 234 431
329 67 156 85 582 50 1166 -18 312 -88 1019 -103 1043 -2 4 -86 44 -186 87
-161 70 -181 81 -177 100 3 11 26 72 50 135 129 329 194 638 204 971 10 319
-27 563 -119 797 l-33 82 -60 0 c-93 1 -175 44 -213 115 -25 46 -22 207 7 314
44 166 109 288 210 394 65 68 117 102 182 116 90 20 199 -30 240 -110 28 -56
24 -121 -15 -251 -62 -203 -69 -238 -62 -308 8 -89 51 -173 129 -252 l62 -63
7 95 c10 130 32 223 74 311 47 97 87 144 199 233 136 109 230 229 272 346 l16
45 76 -37 c122 -59 239 -89 372 -95 164 -8 235 9 424 102 195 97 263 116 436
122 151 6 229 -3 357 -44 95 -29 96 -31 150 -183 42 -121 58 -220 44 -268 -16
-53 -74 -140 -168 -251 -127 -150 -128 -152 -49 -97 384 271 650 544 726 745
38 101 45 162 25 232 -24 86 -63 138 -169 222 -162 129 -316 310 -625 732
-383 524 -511 685 -659 832 -110 108 -185 161 -334 232 -256 123 -500 175
-707 150z"/>
<path d="M14991 32901 l-364 -87 -679 -1620 c-373 -890 -717 -1713 -765 -1828
-62 -147 -94 -211 -108 -217 -11 -4 -299 -73 -640 -153 -887 -207 -2198 -515
-2303 -541 -16 -4 -22 -11 -18 -21 3 -8 19 -73 36 -146 16 -72 32 -133 34
-135 2 -2 529 120 1172 271 643 151 1506 354 1918 450 412 97 751 178 754 181
4 3 -6 56 -21 117 -15 61 -26 112 -24 114 2 2 46 -14 98 -35 52 -22 97 -37
101 -33 4 4 29 63 57 132 51 131 255 633 986 2430 241 591 439 1080 441 1085
5 12 -265 126 -293 124 -10 -1 -182 -40 -382 -88z m284 -108 c-9 -21 -316
-776 -682 -1678 -366 -902 -667 -1641 -668 -1643 -6 -7 -727 -173 -732 -169
-4 4 1391 3350 1403 3366 4 5 655 159 677 160 16 1 16 -1 2 -36z"/>
<path d="M19852 26020 c-45 -32 -102 -112 -149 -205 -26 -51 -103 -245 -103
-259 0 -2 13 -7 29 -11 45 -10 108 -60 131 -104 27 -55 27 -166 -1 -251 -11
-35 -72 -167 -136 -293 -163 -327 -614 -1331 -601 -1341 13 -11 165 -67 214
-80 163 -42 331 4 430 116 17 19 35 47 42 64 27 68 254 971 326 1295 84 380
110 582 105 800 -4 123 -6 139 -32 192 -52 106 -167 141 -255 77z"/>
<path d="M18655 24638 c-72 -8 -272 -52 -282 -61 -2 -2 1 -16 7 -31 5 -15 10
-48 10 -74 0 -87 -63 -161 -176 -207 -32 -14 -57 -25 -54 -25 3 -1 101 -18
219 -39 l213 -38 52 71 c215 295 275 381 268 388 -8 8 -127 28 -157 27 -11 -1
-56 -6 -100 -11z"/>
<path d="M24265 24486 c-411 -141 -772 -274 -1005 -368 -380 -155 -457 -175
-563 -144 -67 19 -121 75 -139 141 -8 30 -18 45 -29 45 -34 0 -227 -63 -304
-99 -152 -73 -205 -128 -205 -215 0 -114 90 -184 265 -207 110 -14 414 -6 600
16 437 53 1489 232 1569 268 100 45 185 182 194 313 2 41 -1 102 -8 136 -15
80 -59 218 -68 217 -4 0 -142 -46 -307 -103z"/>
<path d="M26025 24019 c-77 -27 -239 -83 -360 -125 -313 -108 -730 -264 -939
-351 -284 -119 -415 -133 -506 -56 -31 25 -70 90 -70 115 -1 39 -15 41 -113
14 -243 -66 -405 -166 -423 -261 -13 -71 34 -158 105 -194 78 -39 136 -46 391
-45 270 1 377 12 840 85 263 41 805 135 982 169 156 30 212 73 279 215 35 75
45 152 30 241 -13 78 -58 231 -69 237 -4 2 -70 -18 -147 -44z"/>
<path d="M16450 23706 c0 -4 12 -30 26 -59 51 -101 169 -186 291 -209 l60 -11
269 91 c148 51 291 100 319 111 l50 19 -55 6 c-30 3 -224 15 -430 26 -206 11
-410 23 -452 26 -43 3 -78 3 -78 0z"/>
<path d="M4260 21749 c-248 -27 -484 -130 -647 -282 -89 -83 -155 -178 -218
-309 l-54 -114 -59 -12 c-153 -32 -316 -157 -391 -301 -53 -102 -71 -175 -71
-286 0 -260 145 -472 388 -568 99 -39 250 -49 352 -23 147 37 286 133 366 253
21 31 51 96 68 143 26 74 30 99 30 190 0 123 -17 190 -75 300 -39 72 -40 76
-28 118 32 115 141 222 268 264 94 30 288 36 402 13 286 -57 571 -226 765
-453 176 -206 285 -433 346 -719 l23 -108 5 -6975 c5 -6574 6 -6977 22 -7013
10 -21 27 -51 38 -67 l21 -29 -69 -91 c-75 -99 -165 -264 -205 -376 -54 -150
-72 -264 -72 -454 0 -127 5 -199 18 -262 85 -420 348 -769 724 -961 223 -113
352 -142 633 -142 190 0 213 2 313 28 530 133 923 548 1027 1082 25 129 27
351 5 476 -33 189 -110 388 -208 531 l-45 68 3521 2 3522 3 50 25 c139 68 205
220 160 365 -24 74 -95 153 -167 186 l-53 24 -4312 0 -4313 0 -3 6785 -3 6785
-21 125 c-108 639 -412 1130 -908 1466 -338 228 -789 352 -1145 313z m2803
-16074 c327 -95 565 -359 617 -688 17 -104 8 -280 -20 -377 -78 -272 -284
-486 -560 -582 -93 -32 -99 -33 -265 -33 -151 0 -179 3 -245 24 -376 117 -620
445 -620 830 1 368 241 702 588 816 159 52 349 56 505 10z"/>
<path d="M18438 18651 c-31 -10 -72 -28 -91 -40 -52 -32 -116 -106 -145 -169
l-27 -57 0 -5580 0 -5580 28 -61 c36 -77 113 -154 192 -191 l60 -28 3873 -3
3872 -2 -1 -713 0 -712 -612 -500 -612 -501 -3 -257 -2 -257 2805 0 2805 0 0
253 0 254 -742 504 -743 505 -3 712 -2 712 3872 2 3873 3 67 32 c81 38 146
102 185 181 l28 57 0 5585 0 5585 -29 63 c-37 80 -122 161 -203 194 l-58 23
-9165 2 c-8824 2 -9167 1 -9222 -16z m17982 -5301 l0 -4650 -8775 0 -8775 0 0
4650 0 4650 8775 0 8775 0 0 -4650z"/>
<path d="M23349 15639 c-118 -11 -295 -55 -406 -102 -410 -173 -697 -523 -769
-938 -12 -73 -14 -261 -12 -1290 l3 -1204 27 -98 c58 -210 151 -375 298 -529
51 -55 130 -126 173 -159 153 -113 361 -203 572 -246 86 -17 274 -18 4530 -18
4299 0 4443 1 4540 19 198 37 366 104 524 211 265 177 446 428 521 719 39 155
41 228 37 1411 -3 1000 -5 1149 -19 1211 -118 522 -507 887 -1068 1001 -80 16
-357 17 -4470 19 -2412 1 -4428 -2 -4481 -7z m1861 -588 c237 -47 427 -149
524 -281 81 -110 105 -223 113 -532 l6 -228 -395 0 -395 0 -6 193 c-3 105 -11
208 -16 228 -31 103 -164 116 -227 21 -51 -76 -53 -298 -4 -409 35 -80 95
-130 300 -253 398 -239 629 -435 709 -602 80 -169 106 -343 98 -681 -6 -265
-18 -341 -74 -457 -131 -270 -566 -437 -1020 -391 -222 23 -411 91 -556 201
-202 153 -267 353 -267 826 l0 214 394 0 394 0 5 -277 c6 -349 14 -376 106
-404 53 -16 114 1 151 41 42 45 55 108 54 260 -1 140 -17 229 -53 300 -24 48
-148 146 -396 313 -273 184 -432 304 -489 369 -52 60 -126 196 -150 278 -58
191 -62 538 -10 765 66 289 317 475 706 525 111 14 387 3 498 -19z m2460 -44
c0 -7 479 -3232 484 -3259 l6 -28 -439 0 -439 0 -6 48 c-3 26 -13 148 -21 272
-9 124 -18 235 -21 248 -4 22 -7 22 -154 22 -142 0 -150 -1 -150 -20 0 -28
-39 -476 -46 -527 l-5 -43 -445 0 -444 0 5 23 c3 12 99 738 215 1612 115 875
212 1605 215 1623 l6 32 619 0 c341 0 620 -2 620 -3z m1490 -1312 l0 -1315
260 0 260 0 0 -330 0 -330 -690 0 -690 0 0 1645 0 1645 430 0 430 0 0 -1315z
m2150 985 l0 -330 -285 0 -285 0 0 -310 0 -310 265 0 265 0 0 -315 0 -315
-265 0 -265 0 0 -360 0 -360 310 0 310 0 0 -330 0 -330 -740 0 -740 0 0 1645
0 1645 715 0 715 0 0 -330z"/>
<path d="M27077 14195 c-17 -71 -122 -931 -142 -1160 -3 -38 -8 -85 -11 -102
l-5 -33 146 0 147 0 -6 38 c-10 62 -63 609 -90 922 -14 162 -27 311 -28 330
l-3 35 -8 -30z"/>
</g>
</svg>
